# xmcd
#
# Track frame offsets: 
#        150
#        21775
#        41152
#        52207
#        73222
#        90180
#        110890
#        126420
#        146657
#        166025
#        186147
#        205650
#
# Disc length: 3030 seconds
#
# Revision: 0
# Processed by: cddbd v1.5PL3 Copyright (c) Steve Scherf et al.
# Submitted via: ExactAudioCopy v0.95a3
#
DISCID=b00bd40c
DTITLE=The Dismemberment Plan - The People's History of The Dismemberm
DTITLE=ent Plan
DYEAR=2003
DGENRE=Rock
TTITLE0=The Face of the Earth
TTITLE1=What Do You Want Me To Say?
TTITLE2=Academy Award
TTITLE3=Following Through
TTITLE4=The Other Side
TTITLE5=Life of Possibilities
TTITLE6=Pay for the Piano
TTITLE7=Time Bomb
TTITLE8=Automatic
TTITLE9=The City
TTITLE10=The Jitters
TTITLE11=Superpowers
EXTD=
EXTT0=
EXTT1=
EXTT2=
EXTT3=
EXTT4=
EXTT5=
EXTT6=
EXTT7=
EXTT8=
EXTT9=
EXTT10=
EXTT11=
PLAYORDER=
